<svg width="16" height="13" viewBox="0 0 16 13" fill="none" xmlns="http://www.w3.org/2000/svg">
<path d="M0.757 2.07098C0.681115 2.02551 0.594524 2.00099 0.506065 1.99991C0.417605 1.99884 0.330445 2.02126 0.253479 2.06488C0.176513 2.10849 0.112498 2.17175 0.0679665 2.24819C0.0234348 2.32463 -1.85517e-05 2.41152 1.10103e-08 2.49998V10.5C1.10103e-08 11.163 0.263392 11.7989 0.732233 12.2677C1.20107 12.7366 1.83696 13 2.5 13H13.5C14.163 13 14.7989 12.7366 15.2678 12.2677C15.7366 11.7989 16 11.163 16 10.5V2.49998C16 2.41152 15.9766 2.32463 15.932 2.24819C15.8875 2.17175 15.8235 2.10849 15.7465 2.06488C15.6696 2.02126 15.5824 1.99884 15.4939 1.99991C15.4055 2.00099 15.3189 2.02551 15.243 2.07098L8 6.41698L0.757 2.07098Z" fill="#367AF2"/>
<path d="M0.757 2.07098C0.681115 2.02551 0.594524 2.00099 0.506065 1.99991C0.417605 1.99884 0.330445 2.02126 0.253479 2.06488C0.176513 2.10849 0.112498 2.17175 0.0679665 2.24819C0.0234348 2.32463 -1.85517e-05 2.41152 1.10103e-08 2.49998V10.5C1.10103e-08 11.163 0.263392 11.7989 0.732233 12.2677C1.20107 12.7366 1.83696 13 2.5 13H13.5C14.163 13 14.7989 12.7366 15.2678 12.2677C15.7366 11.7989 16 11.163 16 10.5V2.49998C16 2.41152 15.9766 2.32463 15.932 2.24819C15.8875 2.17175 15.8235 2.10849 15.7465 2.06488C15.6696 2.02126 15.5824 1.99884 15.4939 1.99991C15.4055 2.00099 15.3189 2.02551 15.243 2.07098L8 6.41698L0.757 2.07098Z" fill="url(#paint0_linear_930_657)"/>
<path d="M0.757 2.07098C0.681115 2.02551 0.594524 2.00099 0.506065 1.99991C0.417605 1.99884 0.330445 2.02126 0.253479 2.06488C0.176513 2.10849 0.112498 2.17175 0.0679665 2.24819C0.0234348 2.32463 -1.85517e-05 2.41152 1.10103e-08 2.49998V10.5C1.10103e-08 11.163 0.263392 11.7989 0.732233 12.2677C1.20107 12.7366 1.83696 13 2.5 13H13.5C14.163 13 14.7989 12.7366 15.2678 12.2677C15.7366 11.7989 16 11.163 16 10.5V2.49998C16 2.41152 15.9766 2.32463 15.932 2.24819C15.8875 2.17175 15.8235 2.10849 15.7465 2.06488C15.6696 2.02126 15.5824 1.99884 15.4939 1.99991C15.4055 2.00099 15.3189 2.02551 15.243 2.07098L8 6.41698L0.757 2.07098Z" fill="url(#paint1_linear_930_657)"/>
<path d="M0.757 2.07098C0.681115 2.02551 0.594524 2.00099 0.506065 1.99991C0.417605 1.99884 0.330445 2.02126 0.253479 2.06488C0.176513 2.10849 0.112498 2.17175 0.0679665 2.24819C0.0234348 2.32463 -1.85517e-05 2.41152 1.10103e-08 2.49998V10.5C1.10103e-08 11.163 0.263392 11.7989 0.732233 12.2677C1.20107 12.7366 1.83696 13 2.5 13H13.5C14.163 13 14.7989 12.7366 15.2678 12.2677C15.7366 11.7989 16 11.163 16 10.5V2.49998C16 2.41152 15.9766 2.32463 15.932 2.24819C15.8875 2.17175 15.8235 2.10849 15.7465 2.06488C15.6696 2.02126 15.5824 1.99884 15.4939 1.99991C15.4055 2.00099 15.3189 2.02551 15.243 2.07098L8 6.41698L0.757 2.07098Z" fill="url(#paint2_linear_930_657)" fill-opacity="0.75"/>
<path d="M0.757 2.07098C0.681115 2.02551 0.594524 2.00099 0.506065 1.99991C0.417605 1.99884 0.330445 2.02126 0.253479 2.06488C0.176513 2.10849 0.112498 2.17175 0.0679665 2.24819C0.0234348 2.32463 -1.85517e-05 2.41152 1.10103e-08 2.49998V10.5C1.10103e-08 11.163 0.263392 11.7989 0.732233 12.2677C1.20107 12.7366 1.83696 13 2.5 13H13.5C14.163 13 14.7989 12.7366 15.2678 12.2677C15.7366 11.7989 16 11.163 16 10.5V2.49998C16 2.41152 15.9766 2.32463 15.932 2.24819C15.8875 2.17175 15.8235 2.10849 15.7465 2.06488C15.6696 2.02126 15.5824 1.99884 15.4939 1.99991C15.4055 2.00099 15.3189 2.02551 15.243 2.07098L8 6.41698L0.757 2.07098Z" fill="url(#paint3_linear_930_657)" fill-opacity="0.7"/>
<path d="M2.5 0C1.83696 0 1.20107 0.263392 0.732233 0.732233C0.263392 1.20107 0 1.83696 0 2.5V3.1C4.64917e-05 3.18713 0.022863 3.27274 0.0661883 3.34834C0.109514 3.42394 0.171843 3.48691 0.247 3.531L7.747 7.931C7.82372 7.97601 7.91105 7.99973 8 7.99973C8.08895 7.99973 8.17628 7.97601 8.253 7.931L15.753 3.531C15.8282 3.48691 15.8905 3.42394 15.9338 3.34834C15.9771 3.27274 16 3.18713 16 3.1V2.5C16 1.83696 15.7366 1.20107 15.2678 0.732233C14.7989 0.263392 14.163 0 13.5 0H2.5Z" fill="url(#paint4_linear_930_657)"/>
<defs>
<linearGradient id="paint0_linear_930_657" x1="10.031" y1="4.15598" x2="14.923" y2="12.616" gradientUnits="userSpaceOnUse">
<stop offset="0.228" stop-color="#0094F0" stop-opacity="0"/>
<stop offset="0.431" stop-color="#0094F0"/>
</linearGradient>
<linearGradient id="paint1_linear_930_657" x1="5.714" y1="3.15798" x2="0.272" y2="13.134" gradientUnits="userSpaceOnUse">
<stop offset="0.228" stop-color="#0094F0" stop-opacity="0"/>
<stop offset="0.431" stop-color="#0094F0"/>
</linearGradient>
<linearGradient id="paint2_linear_930_657" x1="12.219" y1="8.56298" x2="13.057" y2="13.991" gradientUnits="userSpaceOnUse">
<stop stop-color="#2764E7" stop-opacity="0"/>
<stop offset="1" stop-color="#2764E7"/>
</linearGradient>
<linearGradient id="paint3_linear_930_657" x1="10.476" y1="3.35098" x2="12.006" y2="14.41" gradientUnits="userSpaceOnUse">
<stop offset="0.533" stop-color="#FF6CE8" stop-opacity="0"/>
<stop offset="1" stop-color="#FF6CE8"/>
</linearGradient>
<linearGradient id="paint4_linear_930_657" x1="4.753" y1="-2.493" x2="10.394" y2="11.118" gradientUnits="userSpaceOnUse">
<stop stop-color="#6CE0FF"/>
<stop offset="0.462" stop-color="#29C3FF"/>
<stop offset="1" stop-color="#4894FE"/>
</linearGradient>
</defs>
</svg>
