<svg width="18" height="20" viewBox="0 0 18 20" fill="none" xmlns="http://www.w3.org/2000/svg">
<path d="M11.7383 11.748C12.6237 12.054 13.4212 12.4805 14.1309 13.0273C14.8405 13.5742 15.446 14.2122 15.9473 14.9414C16.4486 15.6706 16.8327 16.4616 17.0996 17.3145C17.3665 18.1673 17.5 19.0625 17.5 20H16.25C16.25 18.9323 16.0612 17.9427 15.6836 17.0312C15.306 16.1198 14.7786 15.3255 14.1016 14.6484C13.4245 13.9714 12.6335 13.4473 11.7285 13.0762C10.8236 12.7051 9.83073 12.513 8.75 12.5C8.05339 12.5 7.38281 12.5879 6.73828 12.7637C6.09375 12.9395 5.49479 13.1868 4.94141 13.5059C4.38802 13.8249 3.88346 14.2122 3.42773 14.668C2.97201 15.1237 2.58464 15.6283 2.26562 16.1816C1.94661 16.735 1.69596 17.3372 1.51367 17.9883C1.33138 18.6393 1.24349 19.3099 1.25 20H0C0 19.0625 0.136719 18.1673 0.410156 17.3145C0.683594 16.4616 1.07096 15.6738 1.57227 14.9512C2.07357 14.2285 2.67904 13.597 3.38867 13.0566C4.09831 12.5163 4.89583 12.0833 5.78125 11.7578C5.27344 11.4844 4.81771 11.1523 4.41406 10.7617C4.01042 10.3711 3.66862 9.93815 3.38867 9.46289C3.10872 8.98763 2.89062 8.47656 2.73438 7.92969C2.57812 7.38281 2.5 6.82292 2.5 6.25C2.5 5.38411 2.66276 4.57357 2.98828 3.81836C3.3138 3.06315 3.75977 2.39909 4.32617 1.82617C4.89258 1.25326 5.55339 0.807292 6.30859 0.488281C7.0638 0.169271 7.8776 0.00651042 8.75 0C9.61589 0 10.4264 0.16276 11.1816 0.488281C11.9368 0.813802 12.6009 1.25977 13.1738 1.82617C13.7467 2.39258 14.1927 3.05339 14.5117 3.80859C14.8307 4.5638 14.9935 5.3776 15 6.25C15 6.82292 14.9251 7.37956 14.7754 7.91992C14.6257 8.46029 14.4076 8.9681 14.1211 9.44336C13.8346 9.91862 13.4928 10.3516 13.0957 10.7422C12.6986 11.1328 12.2461 11.4681 11.7383 11.748ZM3.75 6.25C3.75 6.9401 3.88021 7.58789 4.14062 8.19336C4.40104 8.79883 4.75911 9.32617 5.21484 9.77539C5.67057 10.2246 6.20117 10.5827 6.80664 10.8496C7.41211 11.1165 8.0599 11.25 8.75 11.25C9.4401 11.25 10.0879 11.1198 10.6934 10.8594C11.2988 10.599 11.8262 10.2409 12.2754 9.78516C12.7246 9.32943 13.0827 8.79883 13.3496 8.19336C13.6165 7.58789 13.75 6.9401 13.75 6.25C13.75 5.5599 13.6198 4.91211 13.3594 4.30664C13.099 3.70117 12.7409 3.17383 12.2852 2.72461C11.8294 2.27539 11.2988 1.91732 10.6934 1.65039C10.0879 1.38346 9.4401 1.25 8.75 1.25C8.0599 1.25 7.41211 1.38021 6.80664 1.64062C6.20117 1.90104 5.67383 2.25911 5.22461 2.71484C4.77539 3.17057 4.41732 3.70117 4.15039 4.30664C3.88346 4.91211 3.75 5.5599 3.75 6.25Z" fill="#B5B5B5"/>
</svg>
