<svg width="19" height="19" viewBox="0 0 19 19" fill="none" xmlns="http://www.w3.org/2000/svg">
<path fill-rule="evenodd" clip-rule="evenodd" d="M12.4999 6.66671C12.4999 7.55076 12.1487 8.39861 11.5236 9.02373C10.8985 9.64885 10.0506 10 9.16659 10C8.28253 10 7.43468 9.64885 6.80956 9.02373C6.18444 8.39861 5.83325 7.55076 5.83325 6.66671C5.83325 5.78265 6.18444 4.93481 6.80956 4.30968C7.43468 3.68456 8.28253 3.33337 9.16659 3.33337C10.0506 3.33337 10.8985 3.68456 11.5236 4.30968C12.1487 4.93481 12.4999 5.78265 12.4999 6.66671ZM10.8333 6.66671C10.8333 7.10873 10.6577 7.53266 10.3451 7.84522C10.0325 8.15778 9.60861 8.33337 9.16659 8.33337C8.72456 8.33337 8.30063 8.15778 7.98807 7.84522C7.67551 7.53266 7.49992 7.10873 7.49992 6.66671C7.49992 6.22468 7.67551 5.80076 7.98807 5.4882C8.30063 5.17564 8.72456 5.00004 9.16659 5.00004C9.60861 5.00004 10.0325 5.17564 10.3451 5.4882C10.6577 5.80076 10.8333 6.22468 10.8333 6.66671Z" fill="#B5B5B5"/>
<path fill-rule="evenodd" clip-rule="evenodd" d="M9.16667 0C4.10417 0 0 4.10417 0 9.16667C0 14.2292 4.10417 18.3333 9.16667 18.3333C14.2292 18.3333 18.3333 14.2292 18.3333 9.16667C18.3333 4.10417 14.2292 0 9.16667 0ZM1.66667 9.16667C1.66667 10.9083 2.26083 12.5117 3.25667 13.785C3.9562 12.8668 4.85846 12.1226 5.89303 11.6106C6.9276 11.0986 8.0665 10.8326 9.22083 10.8333C10.3603 10.832 11.4851 11.0909 12.5093 11.5903C13.5335 12.0897 14.4301 12.8164 15.1308 13.715C15.8529 12.768 16.339 11.6627 16.5491 10.4905C16.7591 9.3183 16.687 8.11295 16.3387 6.97415C15.9905 5.83536 15.376 4.79587 14.5462 3.9417C13.7165 3.08752 12.6952 2.44322 11.567 2.06209C10.4388 1.68097 9.236 1.57398 8.05822 1.74998C6.88043 1.92598 5.76149 2.37991 4.79397 3.07421C3.82646 3.76851 3.03818 4.68323 2.49436 5.74266C1.95054 6.8021 1.66682 7.97581 1.66667 9.16667ZM9.16667 16.6667C7.44492 16.6695 5.77512 16.0771 4.44 14.99C4.97734 14.2205 5.69266 13.5923 6.52506 13.1587C7.35746 12.7252 8.2823 12.4992 9.22083 12.5C10.1476 12.4992 11.0613 12.7195 11.8858 13.1428C12.7104 13.566 13.422 14.1798 13.9617 14.9333C12.6162 16.0558 10.9189 16.6694 9.16667 16.6667Z" fill="#B5B5B5"/>
</svg>
