<svg width="17" height="17" viewBox="0 0 17 17" fill="none" xmlns="http://www.w3.org/2000/svg">
<path d="M10.4826 0.303667C10.0451 0.174656 9.59556 0.0908843 9.14097 0.0536673C8.13533 -0.0652993 7.11612 0.0139724 6.14097 0.287001L6.08263 0.303667C4.33413 0.783791 2.79178 1.82503 1.6928 3.26725C0.593811 4.70947 -0.000945723 6.47279 1.12879e-06 8.28601C0.00094798 10.0992 0.597546 11.8619 1.69804 13.303C2.79853 14.7441 4.34197 15.7837 6.09097 16.262C6.73106 16.4432 7.39241 16.5385 8.05763 16.5453C8.13185 16.5587 8.20726 16.5643 8.28263 16.562C9.02349 16.5629 9.76095 16.462 10.4743 16.262C12.2218 15.782 13.7635 14.7418 14.8625 13.3009C15.9616 11.86 16.5574 10.0982 16.5583 8.28601C16.5593 6.4738 15.9654 4.71137 14.8678 3.26935C13.7702 1.82734 12.2296 0.785445 10.4826 0.303667ZM10.2576 1.10367C11.3367 1.40218 12.3345 1.94004 13.1771 2.67727C14.0196 3.4145 14.6852 4.33215 15.1243 5.362H11.5743C11.15 3.72617 10.3704 2.20395 9.29097 0.903667C9.61769 0.946354 9.9408 1.0132 10.2576 1.10367ZM8.28263 1.02867C9.42061 2.26222 10.2515 3.7469 10.7076 5.362H5.84097C6.29478 3.74281 7.13234 2.25693 8.28263 1.03033V1.02867ZM10.916 6.19533C11.1825 7.57424 11.1825 8.99143 10.916 10.3703H5.6493C5.50834 9.68491 5.43853 8.98676 5.44097 8.287C5.43913 7.58451 5.50894 6.88366 5.6493 6.19533H10.916ZM6.2493 1.12033L6.30763 1.10367C6.62531 1.01865 6.94823 0.954628 7.2743 0.912001C6.18809 2.20649 5.40509 3.72749 4.98263 5.36367H1.44513C1.88263 4.34534 2.54038 3.43664 3.37107 2.70292C4.20176 1.9692 5.18474 1.42871 6.2493 1.12033ZM0.832634 8.287C0.83265 7.57846 0.936532 6.87374 1.14097 6.19533H4.7993C4.67265 6.88538 4.6085 7.58543 4.60763 8.287C4.609 8.98578 4.67315 9.68303 4.7993 10.3703H1.14097C0.936157 9.69486 0.832258 8.99284 0.832634 8.287ZM6.30763 15.462C5.22756 15.1657 4.22862 14.6287 3.38575 13.8912C2.54289 13.1537 1.878 12.2348 1.44097 11.2037H4.9743C5.40077 12.8437 6.18957 14.3671 7.28263 15.662C6.9531 15.6197 6.6272 15.5529 6.30763 15.462ZM5.84097 11.2037H10.7076C10.2574 12.8237 9.42591 14.3124 8.28263 15.5453C7.14005 14.3092 6.30371 12.8221 5.84097 11.2037ZM10.2576 15.462C9.93616 15.5448 9.61075 15.6116 9.28263 15.662C10.3651 14.3625 11.1475 12.8402 11.5743 11.2037H15.1243C14.6862 12.2342 14.021 13.1524 13.1783 13.8898C12.3356 14.6271 11.3372 15.1646 10.2576 15.462ZM11.7576 10.3703C12.0162 8.99067 12.0162 7.57499 11.7576 6.19533H15.416C15.6241 6.87292 15.728 7.57819 15.7243 8.287C15.7262 8.99234 15.6251 9.69418 15.4243 10.3703H11.7576Z" fill="#B5B5B5"/>
</svg>
