<svg width="17" height="17" viewBox="0 0 17 17" fill="none" xmlns="http://www.w3.org/2000/svg">
<path d="M8.33333 10.8333C9.00833 10.8333 9.58333 10.5833 10.0917 10.0917C10.5833 9.58333 10.8333 9.00833 10.8333 8.33333C10.8333 7.65833 10.5833 7.08333 10.0917 6.575C9.58333 6.08333 9.00833 5.83333 8.33333 5.83333C7.65833 5.83333 7.08333 6.08333 6.575 6.575C6.08333 7.08333 5.83333 7.65833 5.83333 8.33333C5.83333 9.00833 6.08333 9.58333 6.575 10.0917C7.08333 10.5833 7.65833 10.8333 8.33333 10.8333ZM8.33333 0C10.625 0 12.5833 0.833333 14.2083 2.45833C15.8333 4.08333 16.6667 6.04167 16.6667 8.33333V9.54167C16.6667 10.375 16.375 11.0833 15.8333 11.6667C15.25 12.225 14.5833 12.5 13.75 12.5C12.75 12.5 11.925 12.0833 11.3 11.25C10.4667 12.0833 9.48333 12.5 8.33333 12.5C7.19167 12.5 6.20833 12.0833 5.38333 11.2833C4.58333 10.4583 4.16667 9.48333 4.16667 8.33333C4.16667 7.19167 4.58333 6.20833 5.38333 5.38333C6.20833 4.58333 7.19167 4.16667 8.33333 4.16667C9.48333 4.16667 10.4583 4.58333 11.2833 5.38333C12.0833 6.20833 12.5 7.19167 12.5 8.33333V9.54167C12.5 9.88333 12.6333 10.1833 12.8833 10.4417C13.1333 10.7 13.425 10.8333 13.75 10.8333C14.1 10.8333 14.3917 10.7 14.6417 10.4417C14.8917 10.1833 15 9.88333 15 9.54167V8.33333C15 6.50833 14.3583 4.94167 13.0417 3.625C11.725 2.30833 10.1583 1.66667 8.33333 1.66667C6.50833 1.66667 4.94167 2.30833 3.625 3.625C2.30833 4.94167 1.66667 6.50833 1.66667 8.33333C1.66667 10.1583 2.30833 11.725 3.625 13.0417C4.94167 14.3583 6.50833 15 8.33333 15H12.5V16.6667H8.33333C6.04167 16.6667 4.08333 15.8333 2.45833 14.2083C0.833333 12.5833 0 10.625 0 8.33333C0 6.04167 0.833333 4.08333 2.45833 2.45833C4.08333 0.833333 6.04167 0 8.33333 0Z" fill="#B5B5B5"/>
</svg>
