<svg width="53" height="23" viewBox="0 0 53 23" fill="none" xmlns="http://www.w3.org/2000/svg">
<path d="M1.5874 13.3525L12.6464 2.29248L17.7064 7.35348L6.6484 18.4135L2.7044 17.2975L1.5874 13.3525Z" fill="url(#paint0_linear_1638_1225)"/>
<path d="M1.94136 12.9995C1.53489 13.4056 1.24927 13.9166 1.11636 14.4755L0.0203556 19.0775C-0.00929281 19.2022 -0.00651306 19.3323 0.0284298 19.4556C0.0633727 19.5789 0.129314 19.6911 0.219964 19.7817C0.310614 19.8722 0.42295 19.9381 0.546259 19.9729C0.669568 20.0077 0.799739 20.0103 0.924356 19.9805L5.52536 18.8845C6.08466 18.7518 6.59604 18.4661 7.00236 18.0595C7.00236 18.0595 5.17836 17.6495 3.76436 16.2365C2.35036 14.8215 1.94136 12.9995 1.94136 12.9995Z" fill="url(#paint1_linear_1638_1225)"/>
<path d="M18.9523 1.04762C18.281 0.376812 17.3708 0 16.4218 0C15.4728 0 14.5626 0.376812 13.8913 1.04762L11.5853 3.35362L16.6453 8.41362L18.9523 6.10862C19.6228 5.43735 19.9994 4.52738 19.9994 3.57862C19.9994 2.62985 19.6228 1.71888 18.9523 1.04762Z" fill="url(#paint2_linear_1638_1225)"/>
<path d="M10.7804 4.15955L12.9004 2.03955C12.9004 2.03955 13.3104 3.86255 14.7244 5.27655C16.1384 6.69055 17.9614 7.09955 17.9614 7.09955L15.8414 9.22155C15.8414 9.22155 14.0174 8.81155 12.6034 7.39855C11.1884 5.98355 10.7804 4.16155 10.7804 4.16155" fill="url(#paint3_linear_1638_1225)"/>
<path d="M23.5995 5.8H31.3755V7.192H25.1355V10.648H30.7195V12.04H25.1355V15.608H31.5675V17H23.5995V5.8ZM41.3466 5.128V17H39.8586V15.32C39.5386 15.8853 39.1066 16.3227 38.5626 16.632C38.0293 16.9307 37.4053 17.08 36.6906 17.08C35.8906 17.08 35.1813 16.8987 34.5626 16.536C33.9546 16.1627 33.48 15.6507 33.1386 15C32.7973 14.3387 32.6266 13.5867 32.6266 12.744C32.6266 11.912 32.7973 11.176 33.1386 10.536C33.48 9.88533 33.9546 9.37867 34.5626 9.016C35.1813 8.65333 35.8853 8.472 36.6746 8.472C37.4 8.472 38.0346 8.62133 38.5786 8.92C39.1226 9.21867 39.5493 9.65067 39.8586 10.216V5.128H41.3466ZM36.9946 15.8C37.5493 15.8 38.04 15.672 38.4666 15.416C38.904 15.16 39.2453 14.8027 39.4906 14.344C39.736 13.8853 39.8586 13.368 39.8586 12.792C39.8586 12.2053 39.736 11.6827 39.4906 11.224C39.2453 10.7653 38.904 10.408 38.4666 10.152C38.04 9.896 37.5493 9.768 36.9946 9.768C36.44 9.768 35.944 9.90133 35.5066 10.168C35.08 10.424 34.744 10.7813 34.4986 11.24C34.2533 11.6987 34.1306 12.216 34.1306 12.792C34.1306 13.368 34.2533 13.8853 34.4986 14.344C34.744 14.8027 35.08 15.16 35.5066 15.416C35.944 15.672 36.44 15.8 36.9946 15.8ZM43.8836 8.536H45.3716V17H43.8836V8.536ZM44.6196 5.16C44.8863 5.16 45.105 5.25067 45.2756 5.432C45.457 5.61333 45.5476 5.84267 45.5476 6.12C45.5476 6.39733 45.457 6.62667 45.2756 6.808C45.105 6.98933 44.8863 7.08 44.6196 7.08C44.353 7.08 44.129 6.98933 43.9476 6.808C43.777 6.62667 43.6916 6.39733 43.6916 6.12C43.6916 5.84267 43.777 5.61333 43.9476 5.432C44.129 5.25067 44.353 5.16 44.6196 5.16ZM52.3683 16.44C51.7176 16.856 51.0563 17.064 50.3843 17.064C49.7123 17.064 49.1683 16.8667 48.7523 16.472C48.3363 16.0667 48.1283 15.4587 48.1283 14.648V9.96H46.9283V8.824H48.1283V6.552H49.6323V8.824H52.2243V9.96H49.6323V14.376C49.6323 14.8453 49.7176 15.1813 49.8883 15.384C50.0589 15.5867 50.3149 15.688 50.6563 15.688C51.0616 15.688 51.4989 15.5547 51.9683 15.288L52.3683 16.44Z" fill="black"/>
<defs>
<linearGradient id="paint0_linear_1638_1225" x1="11.1374" y1="6.46748" x2="13.4444" y2="12.7085" gradientUnits="userSpaceOnUse">
<stop stop-color="#FFA43D"/>
<stop offset="1" stop-color="#FB5937"/>
</linearGradient>
<linearGradient id="paint1_linear_1638_1225" x1="-1.00264" y1="14.9495" x2="4.04436" y2="19.9665" gradientUnits="userSpaceOnUse">
<stop offset="0.255" stop-color="#FFD394"/>
<stop offset="1" stop-color="#FF921F"/>
</linearGradient>
<linearGradient id="paint2_linear_1638_1225" x1="18.2403" y1="1.75062" x2="15.1373" y2="4.66762" gradientUnits="userSpaceOnUse">
<stop stop-color="#F97DBD"/>
<stop offset="1" stop-color="#DD3CE2"/>
</linearGradient>
<linearGradient id="paint3_linear_1638_1225" x1="14.4954" y1="6.95355" x2="9.4204" y2="4.73555" gradientUnits="userSpaceOnUse">
<stop stop-color="#FF921F"/>
<stop offset="1" stop-color="#FFE994"/>
</linearGradient>
</defs>
</svg>
