<svg width="24" height="24" viewBox="0 0 24 24" fill="none" xmlns="http://www.w3.org/2000/svg">
<path d="M7.94992 10.635C8.47357 10.0915 9.1015 9.65928 9.7961 9.36417C10.4907 9.06905 11.2377 8.91713 11.9924 8.91748C13.4624 8.91748 14.9249 9.48748 16.0349 10.635C18.2624 12.9225 18.2624 16.6425 16.0349 18.93C15.5118 19.4741 14.884 19.9068 14.1893 20.202C13.4945 20.4972 12.7473 20.6487 11.9924 20.6475C10.4699 20.6475 9.02992 20.04 7.94992 18.93C6.87001 17.8204 6.26935 16.3308 6.27742 14.7825C6.27742 13.215 6.86992 11.745 7.94992 10.635ZM13.0724 13.035L12.4499 11.745C12.2624 11.355 11.7224 11.355 11.5199 11.745L10.8974 13.035C10.8224 13.1925 10.6799 13.2975 10.5149 13.32L9.12742 13.53C8.71492 13.59 8.54992 14.115 8.84992 14.415L9.80992 15.375C9.95242 15.5175 10.0049 15.7275 9.93742 15.9225L9.49492 17.205C9.34492 17.6325 9.77242 18.0375 10.1774 17.8575L11.7824 17.1375C11.9099 17.0775 12.0599 17.0775 12.1874 17.1375L13.7924 17.8575C14.2049 18.0375 14.6249 17.6325 14.4749 17.205L14.0324 15.9225C14.0014 15.8283 13.9968 15.7274 14.0193 15.6308C14.0418 15.5343 14.0905 15.4457 14.1599 15.375L15.1199 14.415C15.4274 14.115 15.2549 13.59 14.8424 13.53L13.4549 13.32C13.373 13.3066 13.2955 13.2738 13.2289 13.2242C13.1623 13.1746 13.1086 13.1097 13.0724 13.035Z" fill="white"/>
<path d="M4.28111 1.50757L4.28336 1.51132H8.95961C9.46211 1.51132 9.91361 1.76257 10.1611 2.19757L12.0001 5.22157L13.8354 2.20507C14.0904 1.77007 14.5479 1.50757 15.0504 1.50757H16.5804L16.5781 1.51132H19.9989C21.0789 1.51132 21.7554 2.67757 21.2154 3.63007C20.2304 5.38017 18.8355 6.86515 17.1504 7.95757C16.8856 8.16307 16.5931 8.32507 16.2826 8.43982C18.2401 9.83332 19.5226 12.1546 19.5226 14.7826C19.5226 19.0448 16.1506 22.5001 11.9926 22.5001C7.83311 22.5001 4.46261 19.0448 4.46261 14.7826C4.46261 12.1493 5.74886 9.82357 7.71311 8.43157C7.40075 8.3168 7.10804 8.15438 6.84536 7.95007C5.16536 6.85507 3.77036 5.37007 2.78036 3.62257C2.24786 2.67757 2.93036 1.50757 4.01786 1.50757H4.28111ZM9.47861 7.50607C9.91511 7.34846 10.3653 7.23171 10.8234 7.15732L10.9314 6.98032L7.90286 2.25007H4.71536C5.91901 4.2109 7.46923 5.93647 9.29036 7.34257C9.35236 7.39857 9.41511 7.45307 9.47861 7.50607ZM19.3066 2.25007H16.1041L12.9751 7.13032C13.5026 7.20073 14.0209 7.32823 14.5209 7.51057C14.5867 7.45615 14.6512 7.40013 14.7144 7.34257C16.5417 5.93805 18.0978 4.21237 19.3066 2.25007ZM7.32011 19.5826C7.92589 20.2123 8.65277 20.713 9.45703 21.0545C10.2613 21.3961 11.1263 21.5714 12.0001 21.5701C13.7626 21.5701 15.4276 20.8651 16.6876 19.5826C19.2676 16.9351 19.2676 12.6301 16.6876 9.98257C16.0799 9.35452 15.3521 8.85511 14.5474 8.51404C13.7428 8.17297 12.8778 7.99721 12.0039 7.99721C11.1299 7.99721 10.2649 8.17297 9.46028 8.51404C8.65565 8.85511 7.92783 9.35452 7.32011 9.98257C6.06722 11.2653 5.36944 12.9895 5.37761 14.7826C5.37761 16.5976 6.06761 18.3001 7.32011 19.5826Z" fill="white"/>
</svg>
