<svg width="20" height="21" viewBox="0 0 20 21" fill="none" xmlns="http://www.w3.org/2000/svg">
<path d="M13.707 0C14.9868 7.0894e-05 16.0827 0.290456 16.9951 0.871094C17.8959 1.43998 18.5893 2.22222 19.0752 3.21777C19.5611 4.21327 19.8047 5.34523 19.8047 6.61328C19.8046 7.91684 19.5668 9.06033 19.0928 10.0439C18.6187 11.0276 17.9434 11.7985 17.0664 12.3555C16.1894 12.9124 15.1405 13.1904 13.9199 13.1904C13.1851 13.1904 12.5213 13.072 11.9287 12.835C11.3244 12.5979 10.8266 12.2722 10.4355 11.8574C10.2414 11.6519 10.0803 11.4311 9.95215 11.1953L9.84863 12.9062H8V6.27539H13.6885V8.42578H11.0752C11.1226 8.8643 11.2535 9.25591 11.4668 9.59961C11.6801 9.93141 11.9705 10.1922 12.3379 10.3818C12.6933 10.5713 13.1197 10.666 13.6172 10.666C14.3046 10.666 14.8738 10.4941 15.3242 10.1504C15.7627 9.80672 16.0884 9.33286 16.3018 8.72852C16.5151 8.11231 16.622 7.40721 16.6221 6.61328C16.6221 5.81934 16.515 5.12 16.3018 4.51562C16.0766 3.8994 15.7451 3.41316 15.3066 3.05762C14.8681 2.70206 14.3227 2.52441 13.6709 2.52441C12.9244 2.52443 12.3617 2.71369 11.9824 3.09277C11.6032 3.46015 11.3539 3.98174 11.2354 4.65723L8.03516 4.51562C8.22478 3.57936 8.5572 2.7732 9.03125 2.09766C9.49346 1.42211 10.1095 0.906335 10.8799 0.550781C11.6384 0.183376 12.5811 0 13.707 0Z" fill="white"/>
<path d="M3.51562 20.5459H0V15.0459H3.51562V20.5459ZM12.7559 20.5459H9.24707V15.0459H12.7559V20.5459ZM3.51562 11.8389H9.24707V6H12.7559V14.0459H0V6H3.51562V11.8389Z" fill="white"/>
</svg>
