<svg width="26" height="16" viewBox="0 0 26 16" fill="none" xmlns="http://www.w3.org/2000/svg">
<g clip-path="url(#clip0_1456_914)">
<path d="M8.24991 15.9915C8.31394 16.0082 8.38197 15.9989 8.43925 15.9658C8.49653 15.9327 8.53845 15.8783 8.55591 15.8145C9.07091 13.893 11.1639 13.395 12.4149 13.097C12.7284 13.0225 12.9759 12.9635 13.1369 12.894C14.5619 12.2755 15.0264 11.2805 15.1654 10.5545C15.1737 10.5113 15.1704 10.4667 15.1559 10.4251C15.1414 10.3836 15.1162 10.3466 15.0829 10.318C14.3409 9.67746 13.7149 8.71597 13.3199 7.60996C13.3087 7.57829 13.2912 7.54921 13.2684 7.52446C12.7459 6.95646 12.4459 6.35596 12.4459 5.87746C12.4459 5.59796 12.5514 5.41046 12.7889 5.26896C12.8245 5.2477 12.8542 5.21792 12.8754 5.18231C12.8966 5.1467 12.9087 5.10638 12.9104 5.06496C13.0209 2.51796 14.8349 0.512965 17.0599 0.499965L17.1134 0.503465C19.3494 0.534465 21.1519 2.58246 21.2164 5.16546C21.2174 5.20076 21.2258 5.23545 21.2411 5.26725C21.2565 5.29905 21.2784 5.32724 21.3054 5.34996C21.4619 5.48246 21.5349 5.65046 21.5349 5.87846C21.5349 6.27896 21.3214 6.77146 20.9344 7.26446C20.9158 7.28806 20.9015 7.31482 20.8924 7.34346C20.4924 8.61146 19.7744 9.73096 18.9234 10.416C18.8881 10.4444 18.8611 10.4818 18.8454 10.5244C18.8298 10.5669 18.826 10.6129 18.8344 10.6575C18.9734 11.383 19.4379 12.3775 20.8629 12.997C21.0314 13.07 21.2929 13.127 21.6244 13.1985C22.8629 13.4665 24.9354 13.916 25.4439 15.8145C25.4524 15.8462 25.4671 15.8759 25.4872 15.9019C25.5072 15.928 25.5321 15.9498 25.5606 15.9662C25.5891 15.9826 25.6205 15.9932 25.653 15.9975C25.6856 16.0017 25.7187 15.9995 25.7504 15.991C25.7821 15.9824 25.8118 15.9677 25.8379 15.9477C25.8639 15.9277 25.8857 15.9027 25.9021 15.8743C25.9185 15.8458 25.9292 15.8144 25.9334 15.7818C25.9377 15.7493 25.9354 15.7162 25.9269 15.6845C25.3394 13.491 22.9914 12.9825 21.7304 12.7095C21.4379 12.646 21.1854 12.5915 21.0624 12.5375C20.1324 12.1335 19.5594 11.518 19.3569 10.705C20.2204 9.96346 20.9429 8.81946 21.3559 7.53646C21.7944 6.96646 22.0354 6.37946 22.0354 5.87796C22.0354 5.54346 21.9274 5.26446 21.7134 5.04646C21.5944 2.24446 19.5949 0.0379648 17.1134 0.00246484L17.0389 0.00146484C14.6024 0.0144648 12.5944 2.16296 12.4189 4.91646C12.1059 5.14646 11.9469 5.46896 11.9469 5.87846C11.9469 6.46996 12.2814 7.17746 12.8669 7.82646C13.2714 8.93796 13.8984 9.91446 14.6449 10.598C14.4434 11.414 13.8699 12.0315 12.9379 12.436C12.8174 12.4885 12.5774 12.546 12.2994 12.612C11.0289 12.914 8.66491 13.4765 8.07291 15.6855C8.05581 15.7495 8.06486 15.8177 8.09805 15.8751C8.13124 15.9325 8.18587 15.9743 8.24991 15.9915Z" fill="black"/>
</g>
<g clip-path="url(#clip1_1456_914)">
<path d="M0.249911 15.9915C0.313945 16.0082 0.381974 15.9989 0.439254 15.9658C0.496533 15.9327 0.538447 15.8783 0.555911 15.8145C1.07091 13.893 3.16391 13.395 4.41491 13.097C4.72841 13.0225 4.97591 12.9635 5.13691 12.894C6.56191 12.2755 7.02641 11.2805 7.16541 10.5545C7.17368 10.5113 7.1704 10.4667 7.15592 10.4251C7.14143 10.3836 7.11625 10.3466 7.08291 10.318C6.34091 9.67746 5.71491 8.71597 5.31991 7.60996C5.30867 7.57829 5.29115 7.54921 5.26841 7.52446C4.74591 6.95646 4.44591 6.35596 4.44591 5.87746C4.44591 5.59796 4.55141 5.41046 4.78891 5.26896C4.82449 5.2477 4.85422 5.21792 4.87542 5.18231C4.89663 5.1467 4.90866 5.10638 4.91041 5.06496C5.02091 2.51796 6.83491 0.512965 9.05991 0.499965L9.11341 0.503465C11.3494 0.534465 13.1519 2.58246 13.2164 5.16546C13.2174 5.20076 13.2258 5.23545 13.2411 5.26725C13.2565 5.29905 13.2784 5.32724 13.3054 5.34996C13.4619 5.48246 13.5349 5.65046 13.5349 5.87846C13.5349 6.27896 13.3214 6.77146 12.9344 7.26446C12.9158 7.28806 12.9015 7.31482 12.8924 7.34346C12.4924 8.61146 11.7744 9.73096 10.9234 10.416C10.8881 10.4444 10.8611 10.4818 10.8454 10.5244C10.8298 10.5669 10.826 10.6129 10.8344 10.6575C10.9734 11.383 11.4379 12.3775 12.8629 12.997C13.0314 13.07 13.2929 13.127 13.6244 13.1985C14.8629 13.4665 16.9354 13.916 17.4439 15.8145C17.4524 15.8462 17.4671 15.8759 17.4872 15.9019C17.5072 15.928 17.5321 15.9498 17.5606 15.9662C17.5891 15.9826 17.6205 15.9932 17.653 15.9975C17.6856 16.0017 17.7187 15.9995 17.7504 15.991C17.7821 15.9824 17.8118 15.9677 17.8379 15.9477C17.8639 15.9277 17.8857 15.9027 17.9021 15.8743C17.9185 15.8458 17.9292 15.8144 17.9334 15.7818C17.9377 15.7493 17.9354 15.7162 17.9269 15.6845C17.3394 13.491 14.9914 12.9825 13.7304 12.7095C13.4379 12.646 13.1854 12.5915 13.0624 12.5375C12.1324 12.1335 11.5594 11.518 11.3569 10.705C12.2204 9.96346 12.9429 8.81946 13.3559 7.53646C13.7944 6.96646 14.0354 6.37946 14.0354 5.87796C14.0354 5.54346 13.9274 5.26446 13.7134 5.04646C13.5944 2.24446 11.5949 0.0379648 9.11341 0.00246484L9.03891 0.00146484C6.60241 0.0144648 4.59441 2.16296 4.41891 4.91646C4.10591 5.14646 3.94691 5.46896 3.94691 5.87846C3.94691 6.46996 4.28141 7.17746 4.86691 7.82646C5.27141 8.93796 5.89841 9.91446 6.64491 10.598C6.44341 11.414 5.86991 12.0315 4.93791 12.436C4.81741 12.4885 4.57741 12.546 4.29941 12.612C3.02891 12.914 0.664911 13.4765 0.0729109 15.6855C0.0558142 15.7495 0.0648563 15.8177 0.0980488 15.8751C0.131241 15.9325 0.185866 15.9743 0.249911 15.9915Z" fill="black"/>
</g>
<defs>
<clipPath id="clip0_1456_914">
<rect width="18" height="16" fill="white" transform="translate(8)"/>
</clipPath>
<clipPath id="clip1_1456_914">
<rect width="18" height="16" fill="white"/>
</clipPath>
</defs>
</svg>
