<svg width="24" height="24" viewBox="0 0 24 24" fill="none" xmlns="http://www.w3.org/2000/svg">
<path d="M20.0829 10.5L21.2849 11.221C21.359 11.2654 21.4204 11.3283 21.463 11.4035C21.5056 11.4787 21.528 11.5636 21.528 11.65C21.528 11.7365 21.5056 11.8214 21.463 11.8966C21.4204 11.9718 21.359 12.0347 21.2849 12.079L11.9999 17.649L2.71485 12.079C2.6407 12.0347 2.57932 11.9718 2.5367 11.8966C2.49408 11.8214 2.47168 11.7365 2.47168 11.65C2.47168 11.5636 2.49408 11.4787 2.5367 11.4035C2.57932 11.3283 2.6407 11.2654 2.71485 11.221L3.91685 10.5L11.9999 15.35L20.0829 10.5ZM20.0829 15.2L21.2849 15.921C21.359 15.9654 21.4204 16.0283 21.463 16.1035C21.5056 16.1787 21.528 16.2636 21.528 16.35C21.528 16.4365 21.5056 16.5214 21.463 16.5966C21.4204 16.6718 21.359 16.7347 21.2849 16.779L12.5149 22.041C12.3593 22.1345 12.1813 22.1839 11.9999 22.1839C11.8184 22.1839 11.6404 22.1345 11.4849 22.041L2.71485 16.779C2.6407 16.7347 2.57932 16.6718 2.5367 16.5966C2.49408 16.5214 2.47168 16.4365 2.47168 16.35C2.47168 16.2636 2.49408 16.1787 2.5367 16.1035C2.57932 16.0283 2.6407 15.9654 2.71485 15.921L3.91685 15.2L11.9999 20.05L20.0829 15.2ZM12.5139 1.30905L21.2849 6.57105C21.359 6.61544 21.4204 6.6783 21.463 6.75348C21.5056 6.82867 21.528 6.91362 21.528 7.00005C21.528 7.08647 21.5056 7.17142 21.463 7.24661C21.4204 7.3218 21.359 7.38465 21.2849 7.42905L11.9999 12.999L2.71485 7.43005C2.6407 7.38565 2.57932 7.3228 2.5367 7.24761C2.49408 7.17242 2.47168 7.08747 2.47168 7.00105C2.47168 6.91462 2.49408 6.82967 2.5367 6.75448C2.57932 6.6793 2.6407 6.61644 2.71485 6.57205L11.4849 1.31005C11.6404 1.2166 11.8184 1.16724 11.9999 1.16724C12.1813 1.16724 12.3593 1.2166 12.5149 1.31005" fill="black"/>
</svg>
