<svg width="20" height="20" viewBox="0 0 20 20" fill="none" xmlns="http://www.w3.org/2000/svg">
<path d="M1.28126 12.8659C1.42412 13.5759 2.03554 14.1188 2.75983 14.1188H14.5598C15.2841 14.1188 15.8941 13.5759 16.0441 12.8673C16.2298 11.9888 16.4227 11.1673 16.4227 8.59306C16.4227 6.01877 16.2298 5.19735 16.0441 4.31878C15.8941 3.6102 15.2841 3.06592 14.5598 3.06592H2.75983C2.03554 3.06592 1.42554 3.60878 1.28126 4.3202C1.09412 5.2402 0.896973 6.09592 0.896973 8.59163C0.896973 11.0873 1.09412 11.9459 1.28126 12.8659Z" stroke="white" stroke-linecap="round" stroke-linejoin="round"/>
<path d="M3.6711 16.9346H17.2254C17.9482 16.9346 18.5554 16.3932 18.7111 15.6874C18.9025 14.8074 19.1025 13.9874 19.1025 11.4074C19.1025 8.92887 19.1025 7.46458 18.8897 6.08887M3.23682 8.59315L4.10682 8.58172M13.214 8.59315L14.0825 8.58172M8.65967 10.5374C9.90253 10.5374 10.6025 9.83744 10.6025 8.59315C10.6025 7.34887 9.90253 6.6503 8.65967 6.6503C7.41539 6.64887 6.71682 7.34887 6.71682 8.59315C6.71682 9.83601 7.41539 10.5374 8.65967 10.5374Z" stroke="white" stroke-linecap="round" stroke-linejoin="round"/>
</svg>
