<svg width="21" height="13" viewBox="0 0 21 13" fill="none" xmlns="http://www.w3.org/2000/svg">
<path d="M10.36 12C14.36 12 17.82 9.78 19.6 6.5C17.82 3.22 14.36 1 10.36 1C6.36 1 2.9 3.22 1.12 6.5C2.9 9.78 6.36 12 10.36 12ZM10.36 0C14.92 0 18.86 2.65 20.72 6.5C18.86 10.35 14.92 13 10.36 13C5.8 13 1.86 10.35 0 6.5C1.86 2.65 5.8 0 10.36 0ZM10.36 2C12.86 2 14.86 4 14.86 6.5C14.86 9 12.86 11 10.36 11C7.86 11 5.86 9 5.86 6.5C5.86 4 7.86 2 10.36 2ZM10.36 3C9.43174 3 8.5415 3.36875 7.88513 4.02513C7.22875 4.6815 6.86 5.57174 6.86 6.5C6.86 7.42826 7.22875 8.3185 7.88513 8.97487C8.5415 9.63125 9.43174 10 10.36 10C11.2883 10 12.1785 9.63125 12.8349 8.97487C13.4913 8.3185 13.86 7.42826 13.86 6.5C13.86 5.57174 13.4913 4.6815 12.8349 4.02513C12.1785 3.36875 11.2883 3 10.36 3Z" fill="white"/>
</svg>
