<svg width="27" height="20" viewBox="0 0 27 20" fill="none" xmlns="http://www.w3.org/2000/svg">
<path d="M9.45 10C12.0555 10 14.175 7.75714 14.175 5C14.175 2.24286 12.0555 0 9.45 0C6.8445 0 4.725 2.24286 4.725 5C4.725 7.75714 6.8445 10 9.45 10ZM9.45 2.85714C10.5705 2.85714 11.475 3.81429 11.475 5C11.475 6.18571 10.5705 7.14286 9.45 7.14286C8.3295 7.14286 7.425 6.18571 7.425 5C7.425 3.81429 8.3295 2.85714 9.45 2.85714ZM9.45 12.5C6.291 12.5 0 14.1714 0 17.5V20H18.9V17.5C18.9 14.1714 12.609 12.5 9.45 12.5ZM3.159 17.1429C4.293 16.3143 7.0335 15.3571 9.45 15.3571C11.8665 15.3571 14.607 16.3143 15.741 17.1429H3.159ZM18.954 12.5857C20.52 13.7857 21.6 15.3857 21.6 17.5V20H27V17.5C27 14.6143 22.275 12.9714 18.954 12.5857ZM17.55 10C20.1555 10 22.275 7.75714 22.275 5C22.275 2.24286 20.1555 0 17.55 0C16.821 0 16.146 0.185714 15.525 0.5C16.3755 1.77143 16.875 3.32857 16.875 5C16.875 6.67143 16.3755 8.22857 15.525 9.5C16.146 9.81429 16.821 10 17.55 10Z" fill="#1E1E1E"/>
</svg>
