<svg width="20" height="20" viewBox="0 0 20 20" fill="none" xmlns="http://www.w3.org/2000/svg">
<path d="M1.28143 12.8659C1.42428 13.5759 2.03571 14.1188 2.76 14.1188H14.56C15.2843 14.1188 15.8943 13.5759 16.0443 12.8673C16.23 11.9888 16.4229 11.1673 16.4229 8.59306C16.4229 6.01877 16.23 5.19735 16.0443 4.31878C15.8943 3.6102 15.2843 3.06592 14.56 3.06592H2.76C2.03571 3.06592 1.42571 3.60878 1.28143 4.3202C1.09428 5.2402 0.897141 6.09592 0.897141 8.59163C0.897141 11.0873 1.09428 11.9459 1.28143 12.8659Z" stroke="black" stroke-linecap="round" stroke-linejoin="round"/>
<path d="M3.67142 16.9346H17.2257C17.9486 16.9346 18.5557 16.3932 18.7114 15.6874C18.9029 14.8074 19.1029 13.9874 19.1029 11.4074C19.1029 8.92887 19.1029 7.46458 18.89 6.08887M3.23714 8.59315L4.10714 8.58172M13.2143 8.59315L14.0829 8.58172M8.65999 10.5374C9.90285 10.5374 10.6029 9.83744 10.6029 8.59315C10.6029 7.34887 9.90285 6.6503 8.65999 6.6503C7.41571 6.64887 6.71714 7.34887 6.71714 8.59315C6.71714 9.83601 7.41571 10.5374 8.65999 10.5374Z" stroke="black" stroke-linecap="round" stroke-linejoin="round"/>
</svg>
