<svg width="24" height="24" viewBox="0 0 24 24" fill="none" xmlns="http://www.w3.org/2000/svg">
<path d="M20.083 10.4998L21.285 11.2208C21.3592 11.2652 21.4205 11.3281 21.4632 11.4032C21.5058 11.4784 21.5282 11.5634 21.5282 11.6498C21.5282 11.7362 21.5058 11.8212 21.4632 11.8964C21.4205 11.9716 21.3592 12.0344 21.285 12.0788L12 17.6488L2.71501 12.0788C2.64085 12.0344 2.57947 11.9716 2.53685 11.8964C2.49423 11.8212 2.47183 11.7362 2.47183 11.6498C2.47183 11.5634 2.49423 11.4784 2.53685 11.4032C2.57947 11.3281 2.64085 11.2652 2.71501 11.2208L3.91701 10.4998L12 15.3498L20.083 10.4998ZM20.083 15.1998L21.285 15.9208C21.3592 15.9652 21.4205 16.0281 21.4632 16.1032C21.5058 16.1784 21.5282 16.2634 21.5282 16.3498C21.5282 16.4362 21.5058 16.5212 21.4632 16.5964C21.4205 16.6716 21.3592 16.7344 21.285 16.7788L12.515 22.0408C12.3595 22.1342 12.1815 22.1836 12 22.1836C11.8186 22.1836 11.6405 22.1342 11.485 22.0408L2.71501 16.7788C2.64085 16.7344 2.57947 16.6716 2.53685 16.5964C2.49423 16.5212 2.47183 16.4362 2.47183 16.3498C2.47183 16.2634 2.49423 16.1784 2.53685 16.1032C2.57947 16.0281 2.64085 15.9652 2.71501 15.9208L3.91701 15.1998L12 20.0498L20.083 15.1998ZM12.514 1.3088L21.285 6.5708C21.3592 6.6152 21.4205 6.67805 21.4632 6.75324C21.5058 6.82843 21.5282 6.91338 21.5282 6.9998C21.5282 7.08623 21.5058 7.17118 21.4632 7.24637C21.4205 7.32155 21.3592 7.38441 21.285 7.4288L12 12.9988L2.71501 7.4298C2.64085 7.38541 2.57947 7.32255 2.53685 7.24737C2.49423 7.17218 2.47183 7.08723 2.47183 7.0008C2.47183 6.91438 2.49423 6.82943 2.53685 6.75424C2.57947 6.67905 2.64085 6.6162 2.71501 6.5718L11.485 1.3098C11.6405 1.21636 11.8186 1.16699 12 1.16699C12.1815 1.16699 12.3595 1.21636 12.515 1.3098" fill="white"/>
</svg>
